<svg xmlns="http://www.w3.org/2000/svg" xmlns:xlink="http://www.w3.org/1999/xlink" viewBox="0 0 176.06 176.07"><defs><style>.cls-1{fill:url(#Gradiente_sem_nome_3);}.cls-2{fill:url(#Gradiente_sem_nome_9);}.cls-3{fill:url(#Gradiente_sem_nome_7);}</style><linearGradient id="Gradiente_sem_nome_3" x1="-11.97" y1="163.59" x2="152.63" y2="124.24" gradientUnits="userSpaceOnUse"><stop offset="0" stop-color="#7c1fd3"/><stop offset="0.28" stop-color="#6116a6"/><stop offset="0.77" stop-color="#34065c"/><stop offset="1" stop-color="#22003f"/></linearGradient><linearGradient id="Gradiente_sem_nome_9" x1="58.68" y1="62.24" x2="197.85" y2="170.28" gradientUnits="userSpaceOnUse"><stop offset="0.3" stop-color="#fff"/><stop offset="0.76" stop-color="#bebebe"/><stop offset="1" stop-color="#a1a1a1"/></linearGradient><linearGradient id="Gradiente_sem_nome_7" x1="76.66" y1="80.72" x2="121.02" y2="128.26" gradientUnits="userSpaceOnUse"><stop offset="0.04" stop-color="#fff"/><stop offset="0.42" stop-color="#d4d4d4"/><stop offset="0.8" stop-color="#afafaf"/><stop offset="1" stop-color="#a1a1a1"/></linearGradient></defs><g id="Camada_2" data-name="Camada 2"><g id="Camada_1-2" data-name="Camada 1"><path class="cls-1" d="M157.82,141.8Q142,162.93,114.43,171.73c-3.41,1.09-6.94,2-10.62,2.85-3.24.71-6.57,1-9.86,1.45l-11.54,0c-2.14-.28-4.29-.55-6.42-.85a87.92,87.92,0,0,1-61.57-38.87,84.55,84.55,0,0,1,8-8.71.91.91,0,0,1,.11.16c29.32-22.5,61.21-30.61,97.2-17.59a104.84,104.84,0,0,1,23.41,14.17,19.71,19.71,0,0,1,.52,3c0,.22,0,.44.05.65a5.94,5.94,0,0,1-3.35,5.75c-2.76,1.53-5.33.71-7.8-.95q-3.48-2.35-7-4.32a79.85,79.85,0,0,0-53.56-9c-15.56,2.64-28.7,10.36-41.3,19.56,19,21.68,50.25,31.24,79.16,22.64A77.43,77.43,0,0,0,137.21,147a76.08,76.08,0,0,0,14-15.15A24.88,24.88,0,0,1,157.82,141.8Z"/><path class="cls-2" d="M176.06,82.34v9.81l-.33,3c-.65,4.18-.91,8.46-2,12.52a106.09,106.09,0,0,1-8.81,22.87,86.56,86.56,0,0,1-5.89,9.57c-.4.56-.81,1.12-1.22,1.67a24.88,24.88,0,0,0-6.65-9.91l.17-.24a76,76,0,0,0,5.21-8.74,77.13,77.13,0,0,0-10.86-85.73C117.32,4.88,67.31,2.26,35.9,31.47,8.05,57.37,6.06,95.12,18.26,120.29a59.64,59.64,0,0,0,4.19,7.35,84.55,84.55,0,0,0-8,8.71,87.71,87.71,0,0,1-5.16-9,88.92,88.92,0,0,1-7.4-21.3C1.05,102.23.61,98.34,0,94.48V81.58a8.1,8.1,0,0,0,.3-1.25A88,88,0,0,1,69.84,1.87C73.72,1.07,77.66.61,81.58,0H94.1c1,.14,2,.31,3,.42a88,88,0,0,1,77.5,71.63C175.21,75.46,175.57,78.91,176.06,82.34Z"/><path class="cls-3" d="M42.93,106.4l-5.53,2.71c.33-.86.42-1.16.55-1.44l34.66-71.4c2.77-5.71,7.33-8.89,13.66-8.87s10.78,3.25,13.6,9Q117.39,71.75,135,107.1c.61,1.22,1.23,2.44,1.84,3.67,1.91,3.8,3.82,7.6,5.57,11.47a12.9,12.9,0,0,1,.75,2.14,104.84,104.84,0,0,0-23.41-14.17l.93.34q-1.62-3.24-3.22-6.48L86.28,41.26c-.55,1-.86,1.52-1.12,2.07C76.63,60.87,66.78,82.16,58.44,99.81"/></g></g></svg>