<svg xmlns="http://www.w3.org/2000/svg" xmlns:xlink="http://www.w3.org/1999/xlink" viewBox="0 0 475.77 145.22"><defs><style>.cls-1{fill:url(#Gradiente_sem_nome_6);}.cls-2{fill:url(#Gradiente_sem_nome_9);}.cls-3{fill:url(#Gradiente_sem_nome_7);}.cls-4{fill:#fff;}</style><linearGradient id="Gradiente_sem_nome_6" x1="-9.87" y1="134.78" x2="125.75" y2="102.36" gradientUnits="userSpaceOnUse"><stop offset="0" stop-color="#7c1fd3"/><stop offset="0.28" stop-color="#6116a6"/><stop offset="0.77" stop-color="#34065c"/><stop offset="1" stop-color="#22003f"/></linearGradient><linearGradient id="Gradiente_sem_nome_9" x1="48.35" y1="51.28" x2="163.01" y2="140.3" gradientUnits="userSpaceOnUse"><stop offset="0.3" stop-color="#fff"/><stop offset="0.76" stop-color="#bebebe"/><stop offset="1" stop-color="#a1a1a1"/></linearGradient><linearGradient id="Gradiente_sem_nome_7" x1="63.16" y1="66.5" x2="99.71" y2="105.68" gradientUnits="userSpaceOnUse"><stop offset="0.04" stop-color="#fff"/><stop offset="0.42" stop-color="#d4d4d4"/><stop offset="0.8" stop-color="#afafaf"/><stop offset="1" stop-color="#a1a1a1"/></linearGradient></defs><g id="Camada_2" data-name="Camada 2"><g id="Camada_1-2" data-name="Camada 1"><path class="cls-1" d="M130,116.83q-13,17.42-35.75,24.66c-2.81.9-5.72,1.68-8.75,2.35-2.67.59-5.41.81-8.13,1.19-3.18,0-6.32,0-9.5,0-1.77-.23-3.53-.45-5.29-.69a72.43,72.43,0,0,1-50.73-32,70,70,0,0,1,6.62-7.18l.09.13C42.74,86.76,69,80.08,98.67,90.81A86.12,86.12,0,0,1,118,102.48a16.55,16.55,0,0,1,.43,2.5c0,.19,0,.36,0,.54a4.89,4.89,0,0,1-2.76,4.74c-2.28,1.26-4.4.58-6.43-.79s-3.84-2.47-5.8-3.55a65.76,65.76,0,0,0-44.13-7.43c-12.82,2.17-23.64,8.54-34,16.11a63.1,63.1,0,0,0,87.76,6.55,62.67,62.67,0,0,0,11.5-12.49A20.49,20.49,0,0,1,130,116.83Z"/><path class="cls-2" d="M145.06,67.84v8.08l-.27,2.49c-.54,3.44-.75,7-1.64,10.32a88.07,88.07,0,0,1-7.26,18.84,70.67,70.67,0,0,1-4.85,7.88c-.34.47-.67.93-1,1.38a20.49,20.49,0,0,0-5.48-8.17l.14-.19a62.68,62.68,0,0,0,4.29-7.2A63.55,63.55,0,0,0,120,30.63C96.66,4,55.46,1.86,29.58,25.93,6.63,47.27,5,78.37,15,99.11a48.76,48.76,0,0,0,3.46,6,70,70,0,0,0-6.62,7.18,72.3,72.3,0,0,1-4.25-7.42,73.59,73.59,0,0,1-6.1-17.54C.87,84.23.5,81,0,77.84V67.21a7.36,7.36,0,0,0,.25-1A72.49,72.49,0,0,1,57.54,1.54C60.74.88,64,.51,67.21,0H77.53c.82.12,1.64.26,2.46.34a72.55,72.55,0,0,1,63.85,59C144.35,62.17,144.66,65,145.06,67.84Z"/><path class="cls-3" d="M35.37,87.67,30.81,89.9c.28-.71.35-1,.46-1.19L59.83,29.88c2.28-4.7,6-7.32,11.25-7.31S80,25.25,82.28,30q14.44,29.16,29,58.29c.5,1,1,2,1.51,3,1.57,3.13,3.15,6.27,4.59,9.46a10.48,10.48,0,0,1,.62,1.76A86.12,86.12,0,0,0,98.67,90.81l.76.28q-1.32-2.69-2.65-5.34C88.2,68.46,79.71,51.36,71.08,34c-.44.82-.7,1.25-.91,1.7-7,14.45-15.15,32-22,46.53"/><path class="cls-4" d="M163.62,21.53h13.77v88.16H163.62Z"/><path class="cls-4" d="M202.93,21.65a8.43,8.43,0,1,1-8.51,8.45A8.39,8.39,0,0,1,202.93,21.65Zm-6.88,25.48h13.77v62.56H196.05Z"/><path class="cls-4" d="M230.53,91.88c4.47,4.83,10,7.91,16.61,7.91,6.82,0,11-3.08,11-7.73s-3.38-7.37-12.32-9.12c-13.65-2.72-20.35-9.42-20.35-19.44,0-10.21,8.45-17.82,21.8-17.82,13.1,0,21.49,7,23.25,19H257.16c-.54-4.53-3.8-7.54-9.12-7.54s-8.94,2.65-8.94,6.58,3.57,7.12,11.42,8.69c14.43,2.9,21.25,9.36,21.25,19.87,0,10.81-8.87,18.9-23.91,18.9-9.84,0-17.39-4.47-23.37-12.32Z"/><path class="cls-4" d="M287.24,91.88c4.46,4.83,10,7.91,16.6,7.91,6.83,0,11-3.08,11-7.73s-3.38-7.37-12.32-9.12c-13.64-2.72-20.35-9.42-20.35-19.44,0-10.21,8.46-17.82,21.8-17.82,13.11,0,21.5,7,23.25,19H313.87c-.55-4.53-3.81-7.54-9.12-7.54s-8.94,2.65-8.94,6.58,3.56,7.12,11.41,8.69c14.44,2.9,21.26,9.36,21.26,19.87,0,10.81-8.88,18.9-23.91,18.9-9.85,0-17.39-4.47-23.37-12.32Z"/><path class="cls-4" d="M371.06,45.68c19.68,0,34.24,14.55,34.24,32.73s-14.56,32.73-34.24,32.73-34.3-14.55-34.3-32.73S351.37,45.68,371.06,45.68Zm0,53.2a20.47,20.47,0,1,0-20.35-20.47A20.16,20.16,0,0,0,371.06,98.88Z"/><path class="cls-4" d="M475.77,71.11v38.58H462V72.31c0-8.45-5.73-14.37-14.07-14.37-8.57,0-16.18,7.13-16.18,17.33v34.42H417.92V47.13h13.83v8.34a23.48,23.48,0,0,1,19-9.79C465.81,45.68,475.77,55.71,475.77,71.11Z"/><path class="cls-4" d="M265.54,123.85a6.92,6.92,0,0,1,6.42,4.6V118.22h.61v20.49H272v-4.28a6.91,6.91,0,0,1-6.42,4.59,7.61,7.61,0,0,1,0-15.17Zm0,14.64c3.62,0,6.4-3.15,6.4-7.05s-2.78-7.06-6.4-7.06-6.42,3.16-6.42,7.06S261.93,138.49,265.56,138.49Z"/><path class="cls-4" d="M283.52,138.49a6.68,6.68,0,0,0,5.37-2.7l.45.42a7.52,7.52,0,1,1-6-12.38,6.94,6.94,0,0,1,7,7.16,2.86,2.86,0,0,1-.06.53H276.7A6.82,6.82,0,0,0,283.52,138.49Zm-6.8-7.53h13c-.12-3.79-2.78-6.57-6.35-6.57A6.84,6.84,0,0,0,276.72,131Z"/><path class="cls-4" d="M293.17,136.23a6.29,6.29,0,0,0,4.86,2.26c2.69,0,4.4-1.41,4.4-3.37s-1.82-3.2-4.57-3.71c-3.06-.56-4.69-2-4.69-3.79,0-2.05,1.94-3.79,4.69-3.79a4.47,4.47,0,0,1,4.7,3.29h-.62a3.91,3.91,0,0,0-4.08-2.73c-2.47,0-4.07,1.52-4.07,3.23,0,1.49,1.54,2.72,4.26,3.23,3.06.56,5,2,5,4.27s-1.85,3.93-5,3.93a6.58,6.58,0,0,1-5.28-2.42Z"/><path class="cls-4" d="M307.8,119.06a.73.73,0,1,1-.73.73A.71.71,0,0,1,307.8,119.06Zm-.31,5.11h.61v14.54h-.61Z"/><path class="cls-4" d="M319.57,123.85a6.91,6.91,0,0,1,6.42,4.6v-4.28h.62v15c0,3.56-2.67,6-6.4,6a8,8,0,0,1-6.07-2.8l.42-.48a7.18,7.18,0,0,0,5.65,2.72c3.39,0,5.78-2.24,5.78-5.47v-4.76a6.9,6.9,0,0,1-6.42,4.59,7.61,7.61,0,0,1,0-15.17Zm0,14.64c3.62,0,6.4-3.15,6.4-7.05s-2.78-7.06-6.4-7.06-6.42,3.16-6.42,7.06S316,138.49,319.59,138.49Z"/><path class="cls-4" d="M343.31,129.67v9h-.62v-9c0-2.95-1.85-5.34-5.05-5.34a5.9,5.9,0,0,0-5.78,5.62v8.7h-.62V124.17h.62v3.54a6.45,6.45,0,0,1,5.78-3.88A5.47,5.47,0,0,1,343.31,129.67Z"/><path class="cls-4" d="M354,138.49a6.67,6.67,0,0,0,5.36-2.7l.45.42a7.31,7.31,0,0,1-5.81,2.84,7.61,7.61,0,0,1-.17-15.22,6.94,6.94,0,0,1,7,7.16,2.86,2.86,0,0,1-.06.53H347.17A6.82,6.82,0,0,0,354,138.49ZM347.19,131h13c-.13-3.79-2.78-6.57-6.36-6.57A6.84,6.84,0,0,0,347.19,131Z"/><path class="cls-4" d="M371.81,124.49a7.2,7.2,0,0,0-1.07-.1A5.9,5.9,0,0,0,365,130v8.7h-.62V124.17H365v3.54a6.45,6.45,0,0,1,5.78-3.88,6.29,6.29,0,0,1,1.17.1Z"/><path class="cls-4" d="M388.74,123.85a6.91,6.91,0,0,1,6.41,4.6v-4.28h.62v15c0,3.56-2.67,6-6.4,6a8,8,0,0,1-6.06-2.8l.42-.48a7.18,7.18,0,0,0,5.64,2.72c3.4,0,5.78-2.24,5.78-5.47v-4.76a6.9,6.9,0,0,1-6.41,4.59,7.61,7.61,0,0,1,0-15.17Zm0,14.64c3.63,0,6.4-3.15,6.4-7.05s-2.77-7.06-6.4-7.06-6.41,3.16-6.41,7.06S385.13,138.49,388.75,138.49Z"/><path class="cls-4" d="M407.87,124.49a6.94,6.94,0,0,0-1.06-.1A5.9,5.9,0,0,0,401,130v8.7h-.61V124.17H401v3.54a6.47,6.47,0,0,1,5.79-3.88,6.19,6.19,0,0,1,1.16.1Z"/><path class="cls-4" d="M416,123.85a6.91,6.91,0,0,1,6.41,4.6v-4.28h.62v14.54h-.62v-4.28A6.9,6.9,0,0,1,416,139a7.61,7.61,0,0,1,0-15.17Zm0,14.64c3.62,0,6.4-3.15,6.4-7.05s-2.78-7.06-6.4-7.06-6.41,3.16-6.41,7.06S412.41,138.49,416,138.49ZM419,117.23l.48.38-4,4.52-.47-.38Z"/><path class="cls-4" d="M429.68,138.71h-.62v-14h-3.15v-.56h3.15v-1.1c0-3,1.51-4.85,4.46-4.85a9,9,0,0,1,1.46.11v.56a6.57,6.57,0,0,0-1.46-.11c-2.67,0-3.84,1.68-3.84,4.32v1.07h9.54v14.54h-.62v-14h-8.92Zm9.23-19.65a.73.73,0,1,1-.73.73A.71.71,0,0,1,438.91,119.06Z"/><path class="cls-4" d="M457.51,135.3a7.33,7.33,0,0,1-6.41,3.75,7.61,7.61,0,0,1,0-15.22,7.33,7.33,0,0,1,6.5,3.89h-.72a6.71,6.71,0,0,0-5.78-3.33,7.05,7.05,0,0,0,0,14.1,6.72,6.72,0,0,0,5.92-3.56Z"/><path class="cls-4" d="M474.58,131.44a7.44,7.44,0,1,1-7.44-7.61A7.49,7.49,0,0,1,474.58,131.44Zm-.61,0a6.83,6.83,0,1,0-6.83,7.05A7,7,0,0,0,474,131.44Z"/></g></g></svg>