<?xml version="1.0" standalone="no"?>
<!DOCTYPE svg PUBLIC "-//W3C//DTD SVG 20010904//EN"
 "http://www.w3.org/TR/2001/REC-SVG-20010904/DTD/svg10.dtd">
<svg version="1.0" xmlns="http://www.w3.org/2000/svg"
 width="1000.000000pt" height="1000.000000pt" viewBox="0 0 1000.000000 1000.000000"
 preserveAspectRatio="xMidYMid meet">
<metadata>
Created by potrace 1.14, written by Peter Selinger 2001-2017
</metadata>
<g transform="translate(0.000000,1000.000000) scale(0.100000,-0.100000)"
fill="#000000" stroke="none">
<path d="M4555 9990 c-22 -4 -65 -11 -95 -15 -30 -3 -62 -8 -70 -10 -8 -2 -37
-6 -65 -10 -27 -3 -75 -10 -105 -15 -30 -5 -71 -12 -90 -15 -80 -13 -252 -48
-345 -72 -55 -14 -107 -27 -115 -29 -8 -2 -40 -10 -70 -19 -30 -9 -59 -17 -65
-19 -100 -27 -340 -114 -495 -180 -142 -60 -422 -198 -490 -241 -22 -14 -41
-25 -44 -25 -9 0 -228 -138 -331 -208 -99 -68 -281 -204 -345 -258 -407 -346
-693 -659 -972 -1064 -151 -219 -334 -550 -438 -790 -18 -41 -40 -93 -50 -115
-45 -102 -152 -409 -152 -435 0 -3 -4 -12 -8 -21 -34 -63 -147 -578 -165 -754
-4 -33 -8 -67 -10 -75 -3 -8 -7 -49 -11 -90 -3 -41 -10 -93 -15 -115 -12 -54
-11 -775 1 -850 5 -33 12 -78 15 -100 5 -44 41 -283 50 -334 3 -17 7 -46 11
-63 3 -18 10 -53 15 -78 10 -43 13 -55 23 -107 27 -131 165 -582 211 -688 7
-16 29 -70 50 -120 208 -501 494 -961 858 -1380 104 -119 406 -415 527 -516
480 -399 965 -678 1547 -888 107 -39 390 -125 463 -141 19 -4 87 -19 150 -33
137 -31 149 -33 265 -52 128 -20 164 -25 215 -31 25 -3 56 -7 70 -9 92 -16
188 -20 525 -20 332 0 443 4 523 20 10 2 43 6 73 10 30 3 61 8 69 10 8 2 42 7
75 10 32 4 62 8 65 10 3 2 21 6 40 9 19 3 73 15 120 26 47 12 96 23 110 26 14
3 43 10 65 16 22 6 45 12 51 14 30 5 212 60 324 96 791 256 1449 643 1990
1173 99 96 173 175 240 255 30 36 58 67 61 70 28 25 226 290 306 410 126 189
352 601 415 755 9 22 40 96 68 165 98 236 238 654 265 788 2 9 10 44 18 77 14
56 27 120 32 155 1 8 7 49 13 90 6 41 14 100 17 130 4 30 10 82 15 115 5 33
12 84 15 114 4 30 9 63 12 75 3 12 8 174 10 361 4 278 2 361 -12 460 -9 66
-18 136 -21 155 -2 19 -6 49 -9 65 -6 38 -15 102 -20 137 -10 70 -28 163 -51
267 -15 63 -27 119 -28 125 -2 6 -8 31 -15 56 -7 25 -14 52 -16 61 -18 93
-133 428 -210 613 -330 794 -852 1480 -1535 2018 -429 337 -949 618 -1489 803
-165 56 -476 138 -646 170 -71 13 -274 45 -320 50 -92 10 -140 16 -165 22 -39
10 -861 12 -905 3z m720 -634 c138 -9 222 -18 310 -31 17 -3 48 -7 70 -10 22
-4 51 -8 65 -11 14 -2 41 -7 60 -10 19 -3 42 -7 50 -9 8 -2 30 -7 48 -10 110
-18 337 -80 517 -140 425 -140 876 -378 1240 -654 252 -190 552 -481 746 -721
292 -363 526 -764 684 -1175 91 -236 177 -531 210 -720 3 -16 8 -37 10 -45 2
-8 7 -31 10 -50 3 -19 7 -46 10 -60 2 -14 6 -41 9 -60 3 -19 7 -53 10 -75 10
-72 22 -191 31 -325 7 -90 7 -417 1 -485 -2 -22 -7 -83 -11 -135 -4 -52 -8
-106 -10 -120 -14 -114 -17 -137 -20 -150 -2 -8 -7 -40 -10 -70 -4 -30 -9 -58
-11 -61 -2 -4 -6 -22 -8 -40 -3 -19 -12 -68 -21 -109 -9 -41 -18 -83 -20 -93
-2 -10 -7 -27 -10 -37 -3 -10 -8 -28 -10 -39 -3 -12 -7 -30 -10 -41 -3 -11 -7
-28 -9 -38 -8 -34 -58 -189 -98 -302 -164 -469 -428 -931 -759 -1326 -142
-170 -349 -379 -494 -499 -33 -28 -69 -58 -80 -68 -86 -79 -411 -308 -548
-386 -17 -10 -61 -35 -97 -56 -90 -52 -300 -157 -390 -195 -41 -17 -89 -38
-107 -46 -38 -17 -184 -70 -298 -109 -70 -23 -348 -99 -409 -111 -202 -40
-325 -60 -431 -69 -38 -4 -81 -8 -94 -10 -43 -7 -282 -18 -396 -18 -104 0
-363 12 -395 18 -8 2 -49 6 -90 10 -41 4 -82 8 -90 10 -14 3 -70 11 -135 21
-16 3 -37 7 -45 9 -8 2 -35 7 -60 10 -85 12 -405 94 -545 140 -683 226 -1264
588 -1762 1096 -87 90 -133 141 -133 149 0 7 273 198 425 298 113 74 310 195
428 263 101 57 443 226 557 273 274 115 603 216 860 262 14 3 32 7 40 9 8 2
38 7 65 11 28 3 59 8 69 10 20 4 139 19 216 28 138 16 253 21 510 20 157 0
319 -3 360 -7 140 -14 185 -18 210 -22 62 -10 159 -24 200 -30 24 -4 47 -8 50
-10 3 -2 21 -6 40 -9 68 -11 95 -17 244 -56 500 -127 970 -339 1456 -655 123
-80 143 -91 215 -114 128 -42 267 -6 370 96 89 87 112 177 91 348 -19 159 -45
219 -434 1000 -405 812 -1121 2251 -1492 3000 -426 859 -584 1175 -601 1205
-60 105 -177 232 -270 293 -141 93 -283 131 -484 130 -342 -2 -607 -187 -769
-536 -13 -28 -77 -160 -141 -292 -159 -327 -273 -561 -360 -740 -40 -82 -112
-231 -160 -330 -48 -99 -125 -256 -170 -350 -45 -93 -122 -251 -170 -350 -48
-99 -122 -252 -165 -340 -184 -379 -238 -491 -332 -685 -55 -113 -126 -259
-158 -325 -32 -66 -110 -228 -175 -360 -118 -243 -161 -340 -148 -332 15 9
298 145 343 165 44 19 738 315 813 346 40 16 39 15 177 311 15 33 49 105 75
160 26 55 63 133 82 174 19 41 59 126 89 189 30 63 54 116 54 117 0 1 31 68
70 149 38 80 79 168 91 194 12 26 44 94 71 152 28 58 81 170 118 250 37 80 98
207 134 284 36 76 66 139 66 141 0 2 45 96 100 210 55 114 100 208 100 210 0
1 39 83 86 181 200 417 299 613 306 606 4 -4 53 -99 109 -212 155 -312 799
-1610 1189 -2395 191 -385 415 -836 498 -1002 83 -167 149 -303 146 -303 -3 0
-91 29 -197 64 -194 66 -261 85 -463 136 -175 44 -297 69 -484 99 -143 23
-189 29 -280 37 -36 3 -76 8 -90 10 -128 22 -766 22 -890 0 -14 -2 -60 -7
-102 -10 -43 -4 -83 -8 -90 -11 -7 -2 -35 -6 -63 -9 -59 -7 -271 -43 -335 -57
-25 -6 -56 -13 -70 -15 -66 -12 -340 -87 -465 -128 -656 -212 -1288 -548
-1940 -1032 -44 -32 -83 -63 -86 -67 -11 -15 -135 194 -234 392 -94 188 -218
507 -250 641 -2 8 -15 56 -28 105 -27 97 -52 209 -62 265 -3 19 -10 58 -15 85
-5 28 -12 66 -15 85 -3 19 -7 46 -10 60 -2 14 -7 52 -10 85 -3 33 -8 74 -10
90 -24 194 -24 701 0 880 2 17 7 53 10 80 3 28 10 77 15 110 5 33 11 78 15
100 3 22 12 72 20 110 8 39 16 81 18 95 3 14 17 72 32 130 15 58 28 112 30
120 8 36 69 223 101 314 261 728 755 1416 1374 1916 547 440 1223 752 1905
879 127 23 163 29 305 46 25 3 61 7 80 10 19 2 82 7 140 11 58 3 106 7 107 7
5 5 374 -1 468 -7z"/>
</g>
</svg>
